<?xml version="1.0" standalone="no"?><!DOCTYPE svg PUBLIC "-//W3C//DTD SVG 1.1//EN" "http://www.w3.org/Graphics/SVG/1.1/DTD/svg11.dtd"><svg t="1604155549317" class="icon" viewBox="0 0 1024 1024" version="1.1" xmlns="http://www.w3.org/2000/svg" p-id="3092" xmlns:xlink="http://www.w3.org/1999/xlink" width="32" height="32"><defs><style type="text/css"></style></defs><path d="M610.801947 446.938827m-388.488534 0a388.488535 388.488535 0 1 0 776.977069 0 388.488535 388.488535 0 1 0-776.977069 0Z" fill="#E9EAEB" p-id="3093"></path><path d="M408.790799 167.258873h31.067523v93.274818h-31.067523z" fill="#BCC0C4" p-id="3094"></path><path d="M377.723277 198.326395h93.202568v31.067523h-93.202568zM82.43731 353.736259h31.067523v93.274818h-31.067523z" fill="#BCC0C4" p-id="3095"></path><path d="M51.369788 384.803782h93.202568v31.067523H51.369788zM874.948141 431.405066h31.067523v93.274818h-31.067523z" fill="#BCC0C4" p-id="3096"></path><path d="M843.880618 462.544839h93.274818v31.067523H843.880618z" fill="#BCC0C4" p-id="3097"></path><path d="M874.948141 944.235942h77.668807v31.067522H874.948141zM983.756721 944.235942h31.067522v31.067522h-31.067522zM20.302265 944.235942h31.067523v31.067522h-31.067523z" fill="#2A5082" p-id="3098"></path><path d="M626.335709 555.747407h170.943625v404.022296H626.335709z" fill="#FFFFFF" p-id="3099"></path><path d="M812.813095 975.375714h-202.300148V540.213646h202.300148z m-170.943625-31.067522h139.876103V571.281168H641.86947z" fill="#2A5082" p-id="3100"></path><path d="M160.106117 819.893601h170.943625v139.876102H160.106117z" fill="#E9EAEB" p-id="3101"></path><path d="M346.800254 975.375714H144.500106v-171.015875h202.300148z m-170.943625-31.067522h139.659352v-108.80858H175.639879z" fill="#2A5082" p-id="3102"></path><path d="M393.257038 726.691032h170.943625v233.078671H393.257038z" fill="#E9EAEB" p-id="3103"></path><path d="M579.734425 975.375714h-202.300149V711.157271h202.300149z m-170.943626-31.067522h139.876103v-202.300149H408.790799z" fill="#2A5082" p-id="3104"></path><path d="M82.43731 944.235942H843.880618v31.067522H82.43731z" fill="#2A5082" p-id="3105"></path><path d="M812.813095 182.792634H634.861215l43.928032 43.928032-229.682918 229.682918-120.874339-120.802088-252.730685 252.658435 87.567064 88.289565L317.249982 522.367883l120.874339 120.874338 328.593241-328.593241 46.095533 46.095534V182.792634z" fill="#A3D4FF" p-id="3106"></path><path d="M163.068369 698.585762L53.609539 588.259931l274.550201-274.550201 120.946589 120.729838 207.718902-207.718902-59.461793-59.461793h231.200169v231.200169l-61.629295-61.629295-328.809991 328.37649-120.874339-120.874338z m-65.603048-110.253581l65.675298 66.181048 154.109363-154.109362L438.124321 621.350455l328.593241-328.593241 30.561772 30.561773v-124.992592H672.358992L700.825513 226.720666 449.106329 478.43985 328.23199 357.565512z" fill="#2A5082" p-id="3107"></path></svg>